<?xml version="1.0" encoding="utf-8"?>
<!-- Generator: Adobe Illustrator 19.2.1, SVG Export Plug-In . SVG Version: 6.00 Build 0)  -->
<svg version="1.1" id="layer" xmlns="http://www.w3.org/2000/svg" xmlns:xlink="http://www.w3.org/1999/xlink" x="0px" y="0px"
	 viewBox="0 0 652 652" style="enable-background:new 0 0 652 652;" xml:space="preserve">
<style type="text/css">
	.st0{fill:#F8BA00;}
</style>
<g>
	<path class="st0" d="M111.1,219.1c-38.7,0-72.4,21.3-90.1,52.7L42.6,284c13.5-23.9,39.1-40.1,68.5-40.1c43.4,0,78.5,35.1,78.5,78.5
		c0,43.4-35.1,78.5-78.5,78.5c-29.4,0-54.9-16.1-68.4-40L21,373.2c17.7,31.4,51.4,52.6,90,52.6c57.1,0,103.3-46.3,103.3-103.3
		C214.4,265.4,168.1,219.1,111.1,219.1"/>
	<path class="st0" d="M135.3,336.1c-4.8,8.4-13.8,14.1-24.2,14.1c-15.3,0-27.8-12.4-27.8-27.8c0-15.3,12.4-27.8,27.8-27.8
		c10.4,0,19.5,5.7,24.2,14.2l21.6-12.2c-9-16-26.2-26.9-45.9-26.9c-29,0-52.6,23.5-52.6,52.6c0,29,23.5,52.6,52.6,52.6
		c19.6,0,36.8-10.8,45.8-26.8L135.3,336.1z"/>
	<path d="M559.8,410.7l-2.5-10.4h-21.5l-2.5,10.4H517l23-80.1h12.9l23.2,80.1H559.8z M544.8,363.1l-5.7,23.6H554l-5.7-23.6
		c-0.3-1.6-0.7-3.5-1.1-5.7c-0.4-2.2-0.6-3.9-0.7-5c-0.1,1.1-0.3,2.8-0.6,4.9C545.6,359.4,545.2,361.4,544.8,363.1"/>
	<path d="M256.3,251.5c-2.6,3-4.1,8.2-4.1,18.5v9c0,10.2,1.5,15.4,4.1,18.3c2,2.3,4.7,3.3,7.9,3.3c4.7,0,8.5-1.9,11.3-7.9l14.1,6.1
		c-4.7,11.4-13.7,16.8-25.4,16.8c-7.2,0-12.7-1.9-17.1-5.4c-7.2-5.7-10.9-15.7-10.9-31v-9.7c0-14.9,3.7-24.7,10.9-30.5
		c4.4-3.4,9.9-5.7,17.1-5.7c11.5,0,20.7,5.2,25.4,17.3l-14.1,6.1c-2.6-6.6-6.9-8.4-11.3-8.4C260.9,248.2,258.4,249.3,256.3,251.5"/>
	<path d="M307.5,310.1c-7.2-5.7-10.9-15.7-10.9-31v-9.7c0-14.9,3.7-24.7,10.9-30.5c4.4-3.4,9.9-5.6,17.1-5.7
		c7.2,0.1,12.7,2.3,17.1,5.7c7.2,5.8,10.9,15.6,10.9,30.5v10.1c0,14.9-3.7,24.9-10.9,30.6c-4.4,3.5-9.9,5.4-17.1,5.4
		C317.5,315.5,311.9,313.6,307.5,310.1 M316.7,251.5c-2.6,3-4.1,8.2-4.1,18.5v9c0,10.2,1.5,15.4,4.1,18.3c2,2.3,4.7,3.3,7.9,3.3
		c3.2,0,5.9-1,7.9-3.3c2.6-2.9,4.1-8.1,4.1-18.3v-9c0-10.3-1.5-15.5-4.1-18.5c-2-2.2-4.6-3.3-7.9-3.3
		C321.3,248.2,318.8,249.3,316.7,251.5"/>
	<polygon points="393.1,314.5 381,270.5 376.1,314.5 361.2,314.5 370.5,234.3 385.6,234.3 399.4,285 413.2,234.3 428.1,234.3 
		437.5,314.5 422.7,314.5 417.6,270.5 405.7,314.5 	"/>
	<polygon points="449.9,234.3 492.5,234.3 492.5,249.3 466,249.3 466,266.3 488.9,266.3 488.9,281.2 466,281.2 466,299.5 
		492.5,299.5 492.5,314.5 449.9,314.5 	"/>
	<path d="M505.9,234.3h25.6c8.6,0,15.4,3.3,20.2,9.1c4.8,5.7,7.5,13.6,7.5,22.9v14.3c0,10.2-2.7,18.6-7.5,24.6
		c-4.8,5.9-11.6,9.3-20.2,9.3h-25.6V234.3z M529.8,299.5c4.5,0,7.9-1.6,10.2-4.8c2.2-3.3,3.3-8.3,3.3-15.2v-12.7
		c0-5.7-1.1-10.1-3.3-13c-2.2-3-5.7-4.5-10.2-4.5H522v50.2H529.8z"/>
	<polygon points="581.7,275.9 559.2,234.3 576.5,234.3 589.7,259.6 602.8,234.3 620.1,234.3 597.7,275.9 597.7,314.5 581.7,314.5 	
		"/>
	<path d="M256.3,347.7c-2.6,3-4.1,8.2-4.1,18.5v9c0,10.2,1.5,15.4,4.1,18.3c2,2.3,4.7,3.3,7.9,3.3c4.7,0,8.5-1.9,11.3-7.9l14.1,6.1
		c-4.7,11.4-13.7,16.8-25.4,16.8c-7.2,0-12.7-1.9-17.1-5.4c-7.2-5.7-10.9-15.7-10.9-31v-9.7c0-14.9,3.7-24.7,10.9-30.5
		c4.4-3.4,9.9-5.7,17.1-5.7c11.5,0,20.7,5.2,25.4,17.3l-14.1,6.1c-2.6-6.6-6.9-8.4-11.3-8.4C260.9,344.4,258.4,345.4,256.3,347.7"/>
	<polygon points="298.3,330.5 338.8,330.5 338.8,345.4 314.3,345.4 314.3,362.4 335.3,362.4 335.3,377.4 314.3,377.4 314.3,395.6 
		338.8,395.6 338.8,410.6 298.3,410.6 	"/>
	<polygon points="350.6,330.5 364.7,330.5 386.1,377.4 386.1,330.5 400.8,330.5 400.8,410.6 386.7,410.6 365.3,364.3 365.3,410.6 
		350.6,410.6 	"/>
	<polygon points="423.8,345.4 408.8,345.4 408.8,330.5 454.7,330.5 454.7,345.4 439.8,345.4 439.8,410.6 423.8,410.6 	"/>
	<path d="M479.1,410.6h-16v-80.1h25.5c14.1,0,24.6,11.3,24.6,26.5v1.8c0,10.3-4.7,18.6-12.1,23.1l11.8,28.7h-16.1l-10.4-25.4h-7.3
		V410.6z M486.8,370.2c6,0,10.4-3.7,10.4-12.5v-0.2c0-8-4.4-12.1-10.4-12.1h-7.7v24.8H486.8z"/>
	<polygon points="581.7,330.5 597.7,330.5 597.7,395.6 621,395.6 621,410.6 581.7,410.6 	"/>
</g>
</svg>
