<svg id="Layer_1" data-name="Layer 1" xmlns="http://www.w3.org/2000/svg" viewBox="0 0 312 266"><title>logo</title><path d="M306.1,138.05,270,54.75a27.19,27.19,0,0,0-14.3-14.2l-21.2-9.1-7-7.8a29.9,29.9,0,0,0-23.4-10,18.27,18.27,0,0,1-8.6-1.8l-1.9-.9a86.83,86.83,0,0,0-74.2,0l-1.9.9a18.51,18.51,0,0,1-8.6,1.8,29.75,29.75,0,0,0-23.4,10l-7,7.8-21.2,9.1A27.54,27.54,0,0,0,43,54.75L6.8,138a35.45,35.45,0,0,0,5.5,36.8L22,186.2a66.15,66.15,0,0,1,15.8,38.1,5.61,5.61,0,0,0,9.8,3.3l16.2-18.2,25.9,27.7-.2,8.2a15.29,15.29,0,0,0,4.4,11.1,15.09,15.09,0,0,0,11,4.6,16.48,16.48,0,0,0,14.1-8l9.3-7.5c2.6,4.9,11,4.2,19.6,4.2h16.6c8.6,0,17.3.6,19.6-4.2l9.3,7.5a16.46,16.46,0,0,0,14.1,8,15.09,15.09,0,0,0,11-4.6,15.29,15.29,0,0,0,4.4-11.1l-.2-8.2,25.9-27.7,16.2,18.2a5.58,5.58,0,0,0,6,1.6,5.45,5.45,0,0,0,3.8-4.9,66.47,66.47,0,0,1,15.8-38.1l9.7-11.4A34.19,34.19,0,0,0,306.1,138.05Zm-133.2,97.5c-.2,2.1-5,2.9-8.1,2.8H148.2c-4.5.1-7.9.9-8-3.2l12.5-12.8h1.8l5.3-.2Zm37.8,12.9a4,4,0,0,1-2.9,1.2,4.85,4.85,0,0,1-4.3-2.5l-41.3-37.7v-63.6a27.51,27.51,0,0,0,5-1,5.56,5.56,0,0,0,3.8-3.2l2.8-6.2a3.35,3.35,0,0,1,4-1.8l2.4.8a5.74,5.74,0,0,0,6.4-2.1,23.56,23.56,0,0,0,4.7-14c0-14.2-12.6-23.3-33-23.8H155c-20.3.5-33,9.6-33,23.8a23.36,23.36,0,0,0,4.7,14,5.81,5.81,0,0,0,6.4,2.1l2.4-.8a3.28,3.28,0,0,1,4,1.7l2.8,6.2a5.56,5.56,0,0,0,3.8,3.2c1.6.4,3.3.7,5,1v63.6l-41.3,37.7a5.16,5.16,0,0,1-4.3,2.5,4,4,0,0,1-2.9-1.2,3.56,3.56,0,0,1-1.1-2.9l2.1-107.1a53.11,53.11,0,0,1,106.2,0l2.1,107.1a5,5,0,0,1-1.2,3Zm-82-167.2a70.06,70.06,0,0,0-17.4,12.2A64.11,64.11,0,0,0,92,138.25l-1.6,82.6-20.6-22,4.8-86.2a80.21,80.21,0,0,0-2.1-22.9l-3.4-13.7a22.64,22.64,0,0,1,4.2-19.6L94,31.15A18.73,18.73,0,0,1,108.6,25a30.11,30.11,0,0,0,13.8-2.8l1.9-.9a75.34,75.34,0,0,1,64.6,0l1.9.9A30.11,30.11,0,0,0,204.6,25a18.87,18.87,0,0,1,14.6,6.2l20.7,25.3a23,23,0,0,1,4.2,19.6l-3.4,13.7a76.73,76.73,0,0,0-2.1,22.9l4.8,86.2-20.6,22-1.6-82.6a64.11,64.11,0,0,0-19.3-44.8c-5.2-5.1-12.23-10-17.4-12.2s-9.8-4.5-17-5.4-7.2-.9-10.8-.9a73.65,73.65,0,0,0-10.8.9,61.07,61.07,0,0,0-17.2,5.35Z"/></svg>